<svg width="365" height="199" viewBox="0 0 365 199" fill="none" xmlns="http://www.w3.org/2000/svg">
<path d="M0 11.6742C0 5.22673 5.24843 0 11.7227 0H267.277C273.752 0 279 5.22672 279 11.6742V160.326C279 166.773 273.752 172 267.277 172H11.7227C5.24844 172 0 166.773 0 160.326V11.6742Z" fill="black"/>
<path fill-rule="evenodd" clip-rule="evenodd" d="M267.277 7.78281H11.7227C9.56461 7.78281 7.81513 9.52505 7.81513 11.6742V160.326C7.81513 162.475 9.5646 164.217 11.7227 164.217H267.277C269.435 164.217 271.185 162.475 271.185 160.326V11.6742C271.185 9.52506 269.435 7.78281 267.277 7.78281ZM11.7227 0C5.24843 0 0 5.22673 0 11.6742V160.326C0 166.773 5.24844 172 11.7227 172H267.277C273.752 172 279 166.773 279 160.326V11.6742C279 5.22672 273.752 0 267.277 0H11.7227Z" fill="white"/>
<path d="M252 64.7112C252 58.2433 257.252 53 263.73 53H353.27C359.748 53 365 58.2433 365 64.7112V187.289C365 193.757 359.748 199 353.27 199H263.73C257.252 199 252 193.757 252 187.289V64.7112Z" fill="black"/>
<path fill-rule="evenodd" clip-rule="evenodd" d="M353.27 60.8075H263.73C261.571 60.8075 259.82 62.5553 259.82 64.7112V187.289C259.82 189.445 261.571 191.193 263.73 191.193H353.27C355.429 191.193 357.18 189.445 357.18 187.289V64.7112C357.18 62.5552 355.429 60.8075 353.27 60.8075ZM263.73 53C257.252 53 252 58.2433 252 64.7112V187.289C252 193.757 257.252 199 263.73 199H353.27C359.748 199 365 193.757 365 187.289V64.7112C365 58.2433 359.748 53 353.27 53H263.73Z" fill="white"/>
<path d="M186 107.765C186 103.476 189.476 100 193.765 100H244.235C248.524 100 252 103.476 252 107.765V191.235C252 195.524 248.524 199 244.235 199H193.765C189.476 199 186 195.524 186 191.235V107.765Z" fill="black"/>
<path fill-rule="evenodd" clip-rule="evenodd" d="M244.235 107.765H193.765L193.765 191.235H244.235V107.765ZM193.765 100C189.476 100 186 103.476 186 107.765V191.235C186 195.524 189.476 199 193.765 199H244.235C248.524 199 252 195.524 252 191.235V107.765C252 103.476 248.524 100 244.235 100H193.765Z" fill="white"/>
<path fill-rule="evenodd" clip-rule="evenodd" d="M139 199L139 172L147 172L147 199L139 199Z" fill="white"/>
<path fill-rule="evenodd" clip-rule="evenodd" d="M186 199H99V191H186V199Z" fill="white"/>
</svg>
